<?xml version="1.0" encoding="UTF-8"?>
<!--
  REPLACE-ME: ganti file ini dengan foto produk asli "Hexa N° 15" (hexa-15-front).
  Disarankan: 1600x1200 JPG kompres 80% atau PNG transparent.
  Lokasi: assets/catalog/hexa-15-front.jpg
-->
<svg xmlns="http://www.w3.org/2000/svg" viewBox="0 0 800 400" preserveAspectRatio="xMidYMid meet">
  <defs>
    <linearGradient id="bg-hexa-15" x1="0" y1="0" x2="0" y2="1">
      <stop offset="0" stop-color="#FAFBFD"/>
      <stop offset="1" stop-color="#EAEDF2"/>
    </linearGradient>
    <radialGradient id="lens-hexa-15" cx="0.3" cy="0.3" r="0.8">
      <stop offset="0" stop-color="#ffffff" stop-opacity="0.35"/>
      <stop offset="0.6" stop-color="#ffffff" stop-opacity="0.05"/>
      <stop offset="1" stop-color="#000000" stop-opacity="0.15"/>
    </radialGradient>
    <filter id="shadow-hexa-15" x="-20%" y="-20%" width="140%" height="140%">
      <feGaussianBlur in="SourceAlpha" stdDeviation="6"/>
      <feOffset dx="0" dy="8" result="offsetblur"/>
      <feFlood flood-color="#1D2A39" flood-opacity="0.18"/>
      <feComposite in2="offsetblur" operator="in"/>
      <feMerge><feMergeNode/><feMergeNode in="SourceGraphic"/></feMerge>
    </filter>
  </defs>
  <rect width="800" height="400" fill="url(#bg-hexa-15)"/>
  <text x="40" y="40" font-family="JetBrains Mono, monospace" font-size="11" letter-spacing="2" fill="#1D2A39" opacity="0.35">PLACEHOLDER · REPLACE-ME</text>
  <text x="40" y="380" font-family="Poppins, sans-serif" font-size="14" font-weight="600" fill="#1D2A39" opacity="0.7">Hexa N° 15 · BROW</text>

  <g filter="url(#shadow-hexa-15)">
    <!-- temple kiri -->
    <path d="M170 195 q-50 -10 -100 -2" fill="none" stroke="#3A2418" stroke-width="6" stroke-linecap="round"/>
    <!-- temple kanan -->
    <path d="M630 195 q50 -10 100 -2" fill="none" stroke="#3A2418" stroke-width="6" stroke-linecap="round"/>
    <!-- frame kiri -->
    <path d="M170 145 q90 -20 200 0 q-10 95 -100 110 q-100 -10 -100 -110 z" fill="#5C4030" stroke="#3A2418" stroke-width="4"/>
    <!-- lens kiri -->
    <path d="M170 145 q90 -20 200 0 q-10 95 -100 110 q-100 -10 -100 -110 z" fill="url(#lens-hexa-15)"/>
    <!-- frame kanan -->
    <path d="M630 145 q-90 -20 -200 0 q10 95 100 110 q100 -10 100 -110 z" fill="#5C4030" stroke="#3A2418" stroke-width="4"/>
    <!-- lens kanan -->
    <path d="M630 145 q-90 -20 -200 0 q10 95 100 110 q100 -10 100 -110 z" fill="url(#lens-hexa-15)"/>
    <!-- bridge -->
    <path d="M370 188 q30 -8 60 0" fill="none" stroke="#3A2418" stroke-width="5" stroke-linecap="round"/>
  </g>
</svg>
